PathFileType	4	(X/Y/Z)	c:/Users/goper/Files/vsCode/490R/osim_files/C03/C03_fast_05.trc
DataRate	CameraRate	NumFrames	NumMarkers	Units                	OrigDataRate	OrigDataStartFrame	OrigNumFrames
250.00	250.00	11	36	mm	250.0	946	2521
                Frame#	Time	LPSIS			LASIS			LTH1			LTH2			LTH3			LTH4			LLFE			LMFE			LSH1			LSH2			LSH3			LSH4			LLMAL			LMMAL			LCAL			LMTP5			LTOE			LMTP1			RPSIS			RASIS			RTH1			RTH2			RTH3			RTH4			RLFE			RMFE			RSH1			RSH2			RSH3			RSH4			RLMAL			RMMAL			RCAL			RMTP1			RTOE			RMTP5		
		X1	Y1	Z1	X2	Y2	Z2	X3	Y3	Z3	X4	Y4	Z4	X5	Y5	Z5	X6	Y6	Z6	X7	Y7	Z7	X8	Y8	Z8	X9	Y9	Z9	X10	Y10	Z10	X11	Y11	Z11	X12	Y12	Z12	X13	Y13	Z13	X14	Y14	Z14	X15	Y15	Z15	X16	Y16	Z16	X17	Y17	Z17	X18	Y18	Z18	X19	Y19	Z19	X20	Y20	Z20	X21	Y21	Z21	X22	Y22	Z22	X23	Y23	Z23	X24	Y24	Z24	X25	Y25	Z25	X26	Y26	Z26	X27	Y27	Z27	X28	Y28	Z28	X29	Y29	Z29	X30	Y30	Z30	X31	Y31	Z31	X32	Y32	Z32	X33	Y33	Z33	X34	Y34	Z34	X35	Y35	Z35	X36	Y36	Z36

946	3.78000	0.00000	0.00000	0.00000	2317.83374	1095.26001	266.33606	2180.07935	610.58484	462.54227	2173.12646	549.67590	460.86398	0.00000	0.00000	0.00000	2108.85376	554.39667	475.82455	2164.64844	473.49350	465.08755	0.00000	0.00000	0.00000	0.00000	0.00000	0.00000	2107.18018	615.75140	479.66217	0.00000	0.00000	0.00000	0.00000	0.00000	0.00000	0.00000	0.00000	0.00000	0.00000	0.00000	0.00000	2544.75928	352.82040	355.41425	0.00000	0.00000	0.00000	2363.55225	433.50293	465.90039	2395.97339	399.70981	458.06262	2052.57227	987.41284	213.68756	2184.13721	988.44305	323.59906	0.00000	0.00000	0.00000	2090.32373	539.67499	217.89795	0.00000	0.00000	0.00000	0.00000	0.00000	0.00000	0.00000	0.00000	0.00000	2039.47925	510.26627	329.53214	0.00000	0.00000	0.00000	0.00000	0.00000	0.00000	2060.48950	283.19550	216.77141	2056.84839	241.41356	222.95718	2013.09216	103.09164	258.67090	0.00000	0.00000	0.00000	0.00000	0.00000	0.00000	1881.11230	58.01478	350.55328	1852.01538	76.30817	312.62021	0.00000	0.00000	0.00000
947	3.78400	0.00000	0.00000	0.00000	2312.02637	1095.98877	266.22855	2169.69189	611.08344	461.84454	2161.97192	550.20245	460.15588	0.00000	0.00000	0.00000	2097.75513	555.54291	475.41449	2152.33032	474.62549	464.77139	0.00000	0.00000	0.00000	0.00000	0.00000	0.00000	2096.86963	616.92389	479.34705	0.00000	0.00000	0.00000	0.00000	0.00000	0.00000	0.00000	0.00000	0.00000	0.00000	0.00000	0.00000	2533.26562	354.03156	355.33493	0.00000	0.00000	0.00000	2350.59399	434.26129	465.69904	2383.15186	400.62180	457.94580	2046.77209	988.16315	212.98936	2178.14233	989.26990	323.58707	0.00000	0.00000	0.00000	2087.54321	540.24701	217.74194	0.00000	0.00000	0.00000	0.00000	0.00000	0.00000	0.00000	0.00000	0.00000	2036.71155	510.45258	329.24710	0.00000	0.00000	0.00000	0.00000	0.00000	0.00000	2059.46997	283.14978	216.88257	2056.04150	241.28299	223.07893	0.00000	0.00000	0.00000	0.00000	0.00000	0.00000	0.00000	0.00000	0.00000	1881.01660	57.89455	350.68286	1851.89783	75.98206	312.66132	1897.59448	46.73066	245.08824
948	3.78800	0.00000	0.00000	0.00000	2306.20654	1096.75891	266.07663	2159.24170	611.78845	461.11502	2150.80786	550.91412	459.44312	0.00000	0.00000	0.00000	2086.80176	556.95203	474.98386	2139.89038	475.69418	464.34732	0.00000	0.00000	0.00000	0.00000	0.00000	0.00000	2086.45874	618.30017	478.90454	0.00000	0.00000	0.00000	0.00000	0.00000	0.00000	0.00000	0.00000	0.00000	0.00000	0.00000	0.00000	2521.66772	355.15543	355.27744	0.00000	0.00000	0.00000	2337.63599	435.08475	465.38431	2370.30225	401.63141	457.78192	2041.05408	988.96417	212.27881	2172.11450	990.20288	323.44775	0.00000	0.00000	0.00000	2084.87817	540.87323	217.64131	0.00000	0.00000	0.00000	0.00000	0.00000	0.00000	0.00000	0.00000	0.00000	2034.18713	510.77991	329.06848	0.00000	0.00000	0.00000	0.00000	0.00000	0.00000	2058.46167	283.11740	217.05573	2055.19336	241.11455	223.19711	2012.80139	103.17991	258.84000	0.00000	0.00000	0.00000	0.00000	0.00000	0.00000	1880.90527	57.79709	350.75305	1851.76245	75.60241	312.67239	0.00000	0.00000	0.00000
949	3.79200	0.00000	0.00000	0.00000	2300.45337	1097.62073	265.83099	2148.61572	612.52087	460.37958	2139.58032	551.77985	458.73392	0.00000	0.00000	0.00000	2075.78125	558.51117	474.48163	2127.37109	476.80896	463.84000	0.00000	0.00000	0.00000	0.00000	0.00000	0.00000	2076.02490	619.80542	478.43005	0.00000	0.00000	0.00000	0.00000	0.00000	0.00000	0.00000	0.00000	0.00000	0.00000	0.00000	0.00000	2510.26392	356.55908	355.05826	0.00000	0.00000	0.00000	2324.79907	436.15781	465.09692	2357.45874	402.72772	457.56076	0.00000	0.00000	0.00000	2166.08740	991.16595	323.19373	0.00000	0.00000	0.00000	2082.16113	541.44757	217.51028	0.00000	0.00000	0.00000	0.00000	0.00000	0.00000	0.00000	0.00000	0.00000	2031.58350	511.05289	328.81592	0.00000	0.00000	0.00000	0.00000	0.00000	0.00000	2057.48633	283.11444	217.14095	2054.51733	241.09288	223.27438	2012.67590	103.23131	258.92233	0.00000	0.00000	0.00000	0.00000	0.00000	0.00000	1880.85205	57.69429	350.77686	1851.71240	75.25943	312.69818	0.00000	0.00000	0.00000
950	3.79600	0.00000	0.00000	0.00000	2294.66992	1098.54443	265.52023	2138.03345	613.42578	459.67783	2128.36646	552.78009	458.03271	0.00000	0.00000	0.00000	2064.52100	559.98901	473.87537	2115.15576	478.38455	463.34464	0.00000	0.00000	0.00000	0.00000	0.00000	0.00000	2065.48877	621.39215	477.87299	0.00000	0.00000	0.00000	0.00000	0.00000	0.00000	0.00000	0.00000	0.00000	0.00000	0.00000	0.00000	2498.84741	357.97830	354.89255	0.00000	0.00000	0.00000	2311.93994	437.22986	464.70233	2344.71289	403.94958	457.37408	2029.54895	990.46277	211.19730	2160.06396	992.16077	322.84732	0.00000	0.00000	0.00000	2079.55957	542.11786	217.46318	0.00000	0.00000	0.00000	0.00000	0.00000	0.00000	0.00000	0.00000	0.00000	2028.88147	511.29474	328.55991	0.00000	0.00000	0.00000	0.00000	0.00000	0.00000	2056.52417	283.11316	217.21574	2053.85229	241.11275	223.39377	2012.57727	103.28609	258.97644	0.00000	0.00000	0.00000	0.00000	0.00000	0.00000	1880.79529	57.61393	350.77805	1851.55261	74.93163	312.60440	0.00000	0.00000	0.00000
951	3.80000	0.00000	0.00000	0.00000	2288.92041	1099.54126	265.12515	2127.39136	614.47748	458.95810	2117.02661	553.82819	457.29102	0.00000	0.00000	0.00000	2053.48340	561.81970	473.30023	2102.82471	479.95740	462.70786	0.00000	0.00000	0.00000	0.00000	0.00000	0.00000	2054.97559	623.12402	477.21442	0.00000	0.00000	0.00000	0.00000	0.00000	0.00000	0.00000	0.00000	0.00000	0.00000	0.00000	0.00000	2487.36230	359.28186	354.82950	0.00000	0.00000	0.00000	2299.16724	438.46082	464.28857	2331.93237	405.22266	457.13229	2023.65051	991.12689	210.66154	2154.03882	993.20465	322.39276	0.00000	0.00000	0.00000	2077.08496	542.81000	217.41747	0.00000	0.00000	0.00000	0.00000	0.00000	0.00000	0.00000	0.00000	0.00000	2026.05139	511.47025	328.28821	0.00000	0.00000	0.00000	0.00000	0.00000	0.00000	2055.58081	283.17221	217.26645	2053.24438	241.21457	223.51602	2012.44629	103.32436	258.98477	0.00000	0.00000	0.00000	0.00000	0.00000	0.00000	1880.67810	57.54530	350.74561	1851.43140	74.67779	312.55151	1898.77783	45.82010	242.08888
952	3.80400	0.00000	0.00000	0.00000	2283.13940	1100.57678	264.69107	2116.74976	615.54126	458.29440	2105.85620	555.08215	456.63120	0.00000	0.00000	0.00000	2042.38025	563.66187	472.68018	2090.44604	481.51419	461.97025	0.00000	0.00000	0.00000	0.00000	0.00000	0.00000	2044.38501	624.88037	476.56738	0.00000	0.00000	0.00000	0.00000	0.00000	0.00000	0.00000	0.00000	0.00000	0.00000	0.00000	0.00000	2476.23730	360.95041	354.51215	0.00000	0.00000	0.00000	2286.47437	439.73077	463.93170	2319.24976	406.52759	456.97702	2017.60254	991.93353	209.96121	2147.97900	994.36072	321.82028	0.00000	0.00000	0.00000	2074.71387	543.55737	217.40611	0.00000	0.00000	0.00000	0.00000	0.00000	0.00000	0.00000	0.00000	0.00000	2023.35425	511.67044	327.98541	0.00000	0.00000	0.00000	0.00000	0.00000	0.00000	2054.59033	283.26605	217.31464	2052.55859	241.28795	223.54535	2012.30188	103.35807	259.01364	0.00000	0.00000	0.00000	0.00000	0.00000	0.00000	1880.59985	57.46574	350.72522	1851.30383	74.47141	312.49564	1898.56042	45.78798	242.12215
953	3.80800	0.00000	0.00000	0.00000	2277.39038	1101.67139	264.19788	2106.05444	616.66266	457.58038	2094.59839	556.30634	455.91245	0.00000	0.00000	0.00000	2031.22998	565.50604	471.95544	2078.32617	483.36185	461.24097	0.00000	0.00000	0.00000	0.00000	0.00000	0.00000	2033.89380	626.73541	475.93268	0.00000	0.00000	0.00000	0.00000	0.00000	0.00000	0.00000	0.00000	0.00000	0.00000	0.00000	0.00000	2465.11914	362.46350	354.38428	0.00000	0.00000	0.00000	2273.82690	441.00098	463.53470	2306.56567	407.73685	456.77515	2010.99792	992.30109	210.07622	2141.94678	995.52594	321.16119	0.00000	0.00000	0.00000	2072.35889	544.29108	217.47287	0.00000	0.00000	0.00000	0.00000	0.00000	0.00000	0.00000	0.00000	0.00000	2020.62207	512.01892	327.82001	0.00000	0.00000	0.00000	0.00000	0.00000	0.00000	2053.65845	283.41727	217.32022	2051.84619	241.42511	223.59181	2012.17322	103.40269	259.04089	0.00000	0.00000	0.00000	0.00000	0.00000	0.00000	1880.52307	57.37691	350.71997	1851.25842	74.36586	312.50882	1898.32629	45.76131	242.14011
954	3.81200	0.00000	0.00000	0.00000	2271.60840	1102.78699	263.68784	2095.40015	617.84644	456.93723	2083.38452	557.62451	455.20526	0.00000	0.00000	0.00000	2020.16675	567.46686	471.25339	2066.19580	485.09973	460.60419	0.00000	0.00000	0.00000	0.00000	0.00000	0.00000	2023.32397	628.61462	475.21118	0.00000	0.00000	0.00000	0.00000	0.00000	0.00000	0.00000	0.00000	0.00000	0.00000	0.00000	0.00000	2454.19775	364.04138	354.01706	0.00000	0.00000	0.00000	2261.40112	442.35352	463.24454	2293.99902	408.96292	456.68723	2004.68640	992.98553	209.68802	2135.88940	996.71228	320.44983	0.00000	0.00000	0.00000	2069.92407	544.92468	217.51175	0.00000	0.00000	0.00000	0.00000	0.00000	0.00000	0.00000	0.00000	0.00000	2018.16650	512.44830	327.66107	0.00000	0.00000	0.00000	0.00000	0.00000	0.00000	2052.66089	283.59155	217.30205	2051.09424	241.58731	223.62013	2011.99670	103.45593	259.05966	0.00000	0.00000	0.00000	0.00000	0.00000	0.00000	1880.44189	57.31313	350.70920	1851.25391	74.27003	312.52237	1898.12573	45.75055	242.14726
955	3.81600	0.00000	0.00000	0.00000	2265.90698	1103.95715	263.12076	2084.74487	619.06537	456.26169	2072.14307	558.96222	454.44473	0.00000	0.00000	0.00000	2009.16870	569.52625	470.52185	2054.10449	486.90570	459.77081	0.00000	0.00000	0.00000	0.00000	0.00000	0.00000	2012.79663	630.54352	474.43863	0.00000	0.00000	0.00000	0.00000	0.00000	0.00000	0.00000	0.00000	0.00000	0.00000	0.00000	0.00000	0.00000	0.00000	0.00000	0.00000	0.00000	0.00000	2248.93384	443.57880	462.85022	2281.39648	410.04926	456.55508	1998.39490	993.72302	209.32442	2129.83203	997.88525	319.74161	0.00000	0.00000	0.00000	2067.59375	545.59052	217.58987	0.00000	0.00000	0.00000	0.00000	0.00000	0.00000	0.00000	0.00000	0.00000	2015.64062	512.87756	327.57623	0.00000	0.00000	0.00000	0.00000	0.00000	0.00000	2051.61035	283.79797	217.24512	2050.29053	241.77353	223.61232	2011.82996	103.51380	259.05157	0.00000	0.00000	0.00000	0.00000	0.00000	0.00000	1880.38062	57.23234	350.70737	1851.18311	74.15205	312.49951	1897.90479	45.72174	242.23444
956	3.82000	0.00000	0.00000	0.00000	2260.11133	1105.10242	262.60602	2074.21436	620.37201	455.65988	2060.99023	560.40393	453.69370	0.00000	0.00000	0.00000	1998.22192	571.62946	469.75845	2042.09143	488.69479	458.88635	0.00000	0.00000	0.00000	0.00000	0.00000	0.00000	2002.27466	632.51025	473.65332	0.00000	0.00000	0.00000	0.00000	0.00000	0.00000	0.00000	0.00000	0.00000	0.00000	0.00000	0.00000	2432.98315	367.53577	353.38593	0.00000	0.00000	0.00000	2236.57007	444.68042	462.51666	2268.84473	410.92328	456.46838	1992.03027	994.41669	208.99495	2123.81079	999.08313	318.99789	0.00000	0.00000	0.00000	2065.47729	546.32629	217.62502	0.00000	0.00000	0.00000	0.00000	0.00000	0.00000	0.00000	0.00000	0.00000	2013.06592	513.20593	327.54199	0.00000	0.00000	0.00000	0.00000	0.00000	0.00000	2050.50952	284.02536	217.22919	2049.42920	241.96651	223.61343	2011.68787	103.60787	259.05640	0.00000	0.00000	0.00000	0.00000	0.00000	0.00000	1880.30701	57.18579	350.68210	1851.13000	74.01434	312.47437	1897.67993	45.68449	242.26237
